<svg width="120" height="127" viewBox="0 0 120 127" fill="none" xmlns="http://www.w3.org/2000/svg">
<path d="M14.8129 27.4955C14.5924 20.7338 19.5312 14.4988 26.2076 14.4988H94.6187C101.295 14.4988 106.234 20.7338 106.013 27.4955C105.801 33.9904 106.077 42.4041 108.062 49.2641C110.054 56.1459 113.412 60.4947 118.912 61.0543V67.3914C113.412 67.951 110.054 72.2998 108.062 79.1816C106.077 86.0416 105.801 94.4553 106.013 100.95C106.234 107.712 101.295 113.946 94.6187 113.946H26.2076C19.5312 113.946 14.5924 107.711 14.8129 100.95C15.025 94.4553 14.7496 86.0416 12.7635 79.1816C10.7728 72.3007 7.40527 67.951 1.90466 67.3914V61.0543C7.40527 60.4957 10.7728 56.1459 12.7635 49.2641C14.7496 42.4041 15.0241 33.9904 14.8129 27.4955Z" fill="black"/>
<g filter="url(#filter0_d_86_428)">
<path d="M63.3021 91.0195C74.1107 91.0195 80.624 85.375 80.624 76.0648C80.624 69.0273 75.9767 63.9324 69.0761 63.1259V62.8326C74.1459 61.953 78.1244 56.9314 78.1244 51.3234C78.1244 43.3329 72.2096 38.1278 63.1965 38.1278H42.9171V91.0195H63.3021ZM50.8035 44.8355H61.2954C66.999 44.8355 70.2379 47.5479 70.2379 52.4595C70.2379 57.7012 66.4709 60.6334 59.6406 60.6334H50.8035V44.8355ZM50.8035 84.3118V66.9012H61.2248C68.6887 66.9012 72.5616 69.8333 72.5616 75.5515C72.5616 81.2694 68.7945 84.3118 61.6825 84.3118H50.8035Z" fill="url(#paint0_linear_86_428)"/>
</g>
<defs>
<filter id="filter0_d_86_428" x="38.9865" y="35.1799" width="45.5681" height="60.7528" filterUnits="userSpaceOnUse" color-interpolation-filters="sRGB">
<feFlood flood-opacity="0" result="BackgroundImageFix"/>
<feColorMatrix in="SourceAlpha" type="matrix" values="0 0 0 0 0 0 0 0 0 0 0 0 0 0 0 0 0 0 127 0" result="hardAlpha"/>
<feOffset dy="0.98264"/>
<feGaussianBlur stdDeviation="1.96528"/>
<feColorMatrix type="matrix" values="0 0 0 0 0 0 0 0 0 0 0 0 0 0 0 0 0 0 0.15 0"/>
<feBlend mode="normal" in2="BackgroundImageFix" result="effect1_dropShadow_86_428"/>
<feBlend mode="normal" in="SourceGraphic" in2="effect1_dropShadow_86_428" result="shape"/>
</filter>
<linearGradient id="paint0_linear_86_428" x1="46.4848" y1="41.6084" x2="71.587" y2="81.4137" gradientUnits="userSpaceOnUse">
<stop stop-color="white"/>
<stop offset="1" stop-color="#F1E5FC"/>
</linearGradient>
</defs>
</svg>
