<svg width="120" height="115" viewBox="0 0 120 115" fill="none" xmlns="http://www.w3.org/2000/svg">
<path d="M18.2765 101.882L8.92365 1.20697H111.699L102.336 101.867L60.2488 113.064L18.2765 101.882Z" fill="black"/>
<path d="M60.312 104.505L94.3213 95.4567L102.322 9.43799H60.312V104.505Z" fill="black"/>
<path d="M60.312 45.9125H77.3376L78.5135 33.2687H60.312V20.9213H92.5752L92.2664 24.2342L89.1035 58.2599H60.312V45.9125Z" fill="white"/>
<path d="M60.3883 77.9796L60.3316 77.9957L46.0028 74.2828L45.0865 64.4351H32.1727L33.9746 83.8226L60.3297 90.8422L60.3883 90.8261V77.9796Z" fill="#EBEBEB"/>
<path d="M76.2436 57.7378L74.6938 74.273L60.3437 77.9904V90.8369L86.7202 83.8217L86.9137 81.7354L89.1519 57.7378H76.2436Z" fill="white"/>
<path d="M60.3558 20.9213V33.2687H29.2777L29.02 30.4941L28.434 24.2342L28.126 20.9213H60.3558ZM60.312 45.9143V58.2617H46.1637L45.9061 55.4871L45.3191 49.2272L45.0121 45.9143H60.312Z" fill="#EBEBEB"/>
</svg>
