<svg width="120" height="115" viewBox="0 0 120 115" fill="none" xmlns="http://www.w3.org/2000/svg">
<path fill-rule="evenodd" clip-rule="evenodd" d="M60.4634 4.5556C29.4421 4.5556 4.28699 28.6907 4.28699 58.4662C4.28699 82.2861 20.3832 102.493 42.7039 109.623C45.5104 110.123 46.5412 108.453 46.5412 107.029C46.5412 105.744 46.4891 101.497 46.4649 96.9922C30.8366 100.253 27.5388 90.6315 27.5388 90.6315C24.9834 84.4002 21.3014 82.7432 21.3014 82.7432C16.2036 79.3973 21.6856 79.4669 21.6856 79.4669C27.3258 79.8463 30.297 85.0224 30.297 85.0224C35.3074 93.2624 43.4388 90.8805 46.6444 89.5039C47.1486 86.0196 48.6045 83.6404 50.211 82.2942C37.7335 80.9328 24.6159 76.3093 24.6159 55.6523C24.6159 49.7664 26.8113 44.9573 30.4049 41.181C29.8207 39.824 27.8979 34.3409 30.9482 26.9151C30.9482 26.9151 35.6646 25.4662 46.3998 32.4411C50.8817 31.2457 55.6884 30.6449 60.4634 30.6244C65.2356 30.6449 70.0451 31.244 74.5354 32.4393C85.2576 25.4644 89.9684 26.9133 89.9684 26.9133C93.0262 34.3382 91.1033 39.8223 90.52 41.1792C94.122 44.9555 96.3016 49.7647 96.3016 55.6505C96.3016 76.3566 83.1598 80.9149 70.6507 82.2505C72.6665 83.9234 74.4619 87.2051 74.4619 92.2339C74.4619 99.4472 74.3968 105.253 74.3968 107.028C74.3968 108.463 75.4089 110.144 78.2555 109.615C100.563 102.478 116.641 82.2772 116.641 58.4662C116.64 28.6925 91.4875 4.5556 60.4634 4.5556Z" fill="#181616"/>
<path d="M25.5638 81.9585C25.4401 82.2264 25.001 82.3067 24.601 82.1237C24.1917 81.9487 23.9638 81.5836 24.0959 81.3149C24.2168 81.0381 24.6568 80.9623 25.0634 81.1471C25.4727 81.3229 25.7052 81.6916 25.5629 81.9594L25.5638 81.9585ZM27.8392 84.3948C27.5723 84.6332 27.0485 84.5225 26.6932 84.1449C26.3248 83.7699 26.2559 83.2673 26.5285 83.0254C26.8057 82.7879 27.3136 82.9004 27.682 83.2753C28.0486 83.6556 28.1211 84.1538 27.8402 84.3957L27.8392 84.3948ZM30.0551 87.4989C29.7109 87.7292 29.1472 87.514 28.7993 87.0346C28.4551 86.5544 28.4551 85.9785 28.8086 85.7491C29.1556 85.5188 29.7109 85.7268 30.0644 86.2017C30.4068 86.6883 30.4068 87.265 30.0551 87.4989ZM33.0887 90.4994C32.7817 90.8252 32.1249 90.7377 31.6449 90.294C31.1547 89.8593 31.0179 89.2406 31.3259 88.9156C31.6384 88.5889 32.298 88.68 32.7808 89.121C33.271 89.5548 33.4189 90.1744 33.0906 90.4985L33.0887 90.4994ZM37.2749 92.2411C37.1381 92.6633 36.5074 92.8553 35.8702 92.675C35.2348 92.4902 34.819 91.9965 34.9492 91.5697C35.0794 91.1439 35.7148 90.9448 36.3558 91.1368C36.9911 91.3207 37.4069 91.8117 37.2749 92.2411ZM41.8731 92.5634C41.8889 93.0079 41.3494 93.3758 40.6824 93.3847C40.0098 93.3999 39.4656 93.0392 39.4591 92.6017C39.4591 92.1527 39.9875 91.7894 40.6591 91.7769C41.3261 91.7653 41.874 92.1223 41.874 92.5625L41.8731 92.5634ZM46.1504 91.8652C46.2304 92.2982 45.7662 92.7437 45.103 92.8624C44.4518 92.9785 43.8471 92.7089 43.7634 92.2795C43.6834 91.8349 44.156 91.3894 44.8071 91.2742C45.4714 91.1644 46.0667 91.4251 46.1504 91.8652Z" fill="#181616"/>
</svg>
