<svg width="120" height="115" viewBox="0 0 120 115" fill="none" xmlns="http://www.w3.org/2000/svg">
<path d="M17.7093 101.661L8.4021 1.48285H110.671L101.354 101.646L59.4742 112.787L17.7093 101.661Z" fill="black"/>
<path d="M59.5365 104.272L93.3774 95.2675L101.34 9.67371H59.5365V104.272Z" fill="#101010"/>
<path d="M59.5365 46.8285H42.5946L41.4244 34.2463H59.5365V21.9604H27.4324L27.7394 25.2564L30.8855 59.1153H59.5365V46.8285ZM59.5365 78.7376L59.4798 78.7528L45.2217 75.0569L44.311 65.2591H31.4576L33.2511 84.5502L59.4779 91.5368L59.5365 91.5216V78.7376Z" fill="#EBEBEB"/>
<path d="M59.4919 46.8285V59.1153H75.257L73.7713 75.0497L59.4919 78.7484V91.5315L85.7391 84.5503L85.9317 82.4746L88.9401 50.1281L89.2518 46.8285H85.8024H59.4919ZM59.4919 21.9604V34.2463H90.4174L90.6741 31.486L91.2583 25.2564L91.5644 21.9604H59.4919Z" fill="white"/>
</svg>
