<svg width="120" height="115" viewBox="0 0 120 115" fill="none" xmlns="http://www.w3.org/2000/svg">
<path d="M1.85889 1.25696H118.312V113.014H1.85889V1.25696Z" fill="black"/>
<path d="M108.782 86.3597C107.929 81.2613 104.464 76.9789 94.2028 72.9857C90.638 71.4136 86.664 70.2878 85.4798 67.6953C85.0593 66.1866 85.0035 65.3367 85.2695 64.4234C86.0333 61.4596 89.7199 60.5356 92.6418 61.3855C94.5237 61.9907 96.3052 63.3825 97.3796 65.6027C102.405 62.4799 102.395 62.5005 105.904 60.3543C104.619 58.443 103.933 57.561 103.092 56.7432C100.07 53.5035 95.9517 51.835 89.3654 51.9626L85.9347 52.3885C82.6471 53.1857 79.514 54.8417 77.6768 57.0619C72.164 63.0647 73.7362 73.5704 80.4443 77.8939C87.0528 82.654 96.761 83.7369 98.001 88.1881C99.2076 93.6373 93.8279 95.4014 88.4808 94.7747C84.5402 93.9882 82.3485 92.0661 79.9791 88.571C75.6181 90.993 75.6181 90.993 71.1342 93.4677C72.1975 95.6987 73.3148 96.7083 75.0971 98.6411C83.5327 106.852 104.642 106.449 108.428 94.0203C108.582 93.5936 109.601 90.7475 108.782 86.3597ZM65.1666 52.6206H54.2743L54.2296 79.6455C54.2296 85.3929 54.5394 90.6618 53.5654 92.2768C51.9719 95.4531 47.8425 95.0595 45.9605 94.4435C44.0451 93.54 43.0712 92.2554 41.9428 90.4395C41.633 89.9182 41.4004 89.5147 41.3223 89.4834L32.4662 94.6881C33.9388 97.5886 36.1082 100.106 38.8869 101.742C43.0377 104.132 48.6164 104.865 54.451 103.58C58.2483 102.518 61.5247 100.319 63.2401 96.9726C65.7201 92.5848 65.188 87.2739 65.1657 81.3997C65.2215 71.8162 65.1666 62.2344 65.1666 52.6206Z" fill="white"/>
</svg>
