<svg width="120" height="115" viewBox="0 0 120 115" fill="none" xmlns="http://www.w3.org/2000/svg">
<g clip-path="url(#clip0_86_399)">
<path d="M0.0981445 57.1352C0.0981445 73.7338 26.7538 87.1909 59.6347 87.1909C92.5156 87.1909 119.171 73.7338 119.171 57.1352C119.171 40.5365 92.5146 27.0794 59.6347 27.0794C26.7538 27.0794 0.0981445 40.5365 0.0981445 57.1352Z" fill="url(#paint0_radial_86_399)"/>
<path d="M59.6347 84.9591C91.2309 84.9591 116.846 72.5009 116.846 57.1351C116.846 41.7676 91.2309 29.3112 59.6347 29.3112C28.0384 29.3112 2.42378 41.7676 2.42378 57.1351C2.42378 72.5009 28.0384 84.9591 59.6347 84.9591Z" fill="black"/>
<path d="M32.4451 60.5847C35.0433 60.5847 36.9819 60.1249 38.209 59.2188C39.4239 58.3207 40.262 56.7665 40.702 54.5989C41.1114 52.5724 40.9551 51.1583 40.2369 50.3941C39.5039 49.6139 37.9178 49.2184 35.5233 49.2184H31.3706L29.0701 60.5847H32.4451ZM18.8642 74.5855C18.769 74.5854 18.6749 74.565 18.5888 74.5259C18.5027 74.4867 18.4267 74.4298 18.3662 74.3591C18.3057 74.2885 18.2623 74.2058 18.239 74.1172C18.2158 74.0285 18.2133 73.936 18.2317 73.8463L24.3314 43.7271C24.3602 43.5863 24.439 43.4595 24.5543 43.3682C24.6697 43.2769 24.8144 43.2267 24.9639 43.2263H38.1122C42.2444 43.2263 45.3198 44.303 47.2539 46.4268C49.1962 48.5604 49.7972 51.5457 49.0372 55.2961C48.7274 56.8236 48.1953 58.2422 47.4557 59.5134C46.6859 60.821 45.7036 62.0023 44.5459 63.0129C43.1216 64.2913 41.5095 65.2198 39.7578 65.7652C38.035 66.3045 35.821 66.5776 33.1809 66.5776H27.8561L26.3361 74.0838C26.3074 74.225 26.2284 74.3523 26.1126 74.4439C25.9969 74.5354 25.8516 74.5854 25.7016 74.5855H18.8642Z" fill="black"/>
<path d="M31.9037 49.8379H35.5233C38.4136 49.8379 39.4174 50.4467 39.7588 50.8101C40.3234 51.4118 40.4313 52.6822 40.0667 54.481C39.6583 56.4959 38.9011 57.9252 37.8155 58.7269C36.7047 59.5482 34.8963 59.9642 32.4451 59.9642H29.8534L31.9046 49.8388L31.9037 49.8379ZM38.1122 42.6067H24.9649C24.6651 42.6068 24.3746 42.7068 24.1431 42.8896C23.9116 43.0725 23.7536 43.3269 23.696 43.6093L17.5963 73.7293C17.5603 73.9087 17.566 74.0936 17.613 74.2706C17.66 74.4477 17.7472 74.6126 17.8684 74.7535C17.9895 74.8945 18.1415 75.0081 18.3137 75.0861C18.4859 75.1641 18.6738 75.2047 18.8642 75.205H25.7016C26.0014 75.2047 26.2918 75.1045 26.5231 74.9215C26.7544 74.7384 26.9122 74.4839 26.9696 74.2016L28.3882 67.1972H33.18C35.8889 67.1972 38.1699 66.9133 39.9588 66.3544C41.7979 65.7813 43.49 64.8091 44.9877 63.4646C46.1937 62.4105 47.217 61.1789 48.0195 59.816C48.7925 58.4885 49.3488 57.0066 49.6707 55.4139C50.4707 51.4654 49.8204 48.3042 47.7394 46.0188C45.678 43.7539 42.4388 42.6058 38.1122 42.6058V42.6067ZM28.2859 61.2033H32.4451C35.2014 61.2033 37.2545 60.7061 38.6034 59.708C39.9532 58.7117 40.862 57.0476 41.3365 54.7167C41.7877 52.4777 41.5821 50.8985 40.7179 49.9781C39.8518 49.0585 38.1215 48.5979 35.5233 48.5979H30.8385L28.2859 61.2033ZM38.1131 43.8441C42.0686 43.8441 44.9533 44.8412 46.7673 46.8329C48.5813 48.8255 49.1265 51.6064 48.4046 55.1765C48.105 56.6477 47.6018 57.9921 46.8929 59.2098C46.1822 60.4293 45.2557 61.5434 44.1105 62.5549C42.7449 63.7806 41.2295 64.6546 39.5597 65.1751C37.8908 65.6965 35.7642 65.9562 33.1809 65.9562H27.324L25.7026 73.9641H18.8652L24.9658 43.8441H38.1131Z" fill="white"/>
<path d="M64.7129 66.5776C64.6176 66.5777 64.5234 66.5576 64.4372 66.5186C64.3509 66.4796 64.2747 66.4228 64.2141 66.3522C64.1534 66.2816 64.1098 66.199 64.0863 66.1104C64.0629 66.0217 64.0602 65.9291 64.0785 65.8393L66.7763 52.5125C67.0339 51.2449 66.9707 50.336 66.5995 49.9504C66.3716 49.7156 65.6888 49.3219 63.6692 49.3219H58.7798L55.388 66.0768C55.3589 66.2179 55.2796 66.3449 55.1637 66.4361C55.0478 66.5273 54.9025 66.577 54.7527 66.5767H47.9711C47.8758 66.5768 47.7817 66.5566 47.6955 66.5177C47.6093 66.4788 47.5331 66.4221 47.4724 66.3516C47.4117 66.2812 47.368 66.1987 47.3443 66.1102C47.3207 66.0216 47.3178 65.9291 47.3357 65.8393L53.4364 35.7193C53.4652 35.5782 53.5443 35.4511 53.66 35.3597C53.7757 35.2684 53.9209 35.2184 54.0708 35.2184H60.8524C60.9476 35.2184 61.0417 35.2385 61.1279 35.2774C61.2142 35.3163 61.2903 35.3731 61.351 35.4435C61.4118 35.514 61.4555 35.5964 61.4791 35.685C61.5027 35.7736 61.5057 35.8661 61.4877 35.9558L60.0161 43.2263H65.2748C69.2814 43.2263 71.9978 43.903 73.5802 45.2983C75.1923 46.7205 75.6965 48.9943 75.076 52.059L72.2378 66.0768C72.2087 66.2177 72.1296 66.3446 72.0139 66.4358C71.8982 66.527 71.7531 66.5768 71.6034 66.5767H64.7129V66.5776Z" fill="black"/>
<path d="M60.8533 34.598H54.0708C53.7708 34.5981 53.4802 34.6982 53.2487 34.8813C53.0173 35.0643 52.8593 35.3189 52.8019 35.6015L46.7022 65.7206C46.666 65.9001 46.6716 66.085 46.7186 66.2622C46.7655 66.4393 46.8527 66.6044 46.9738 66.7454C47.095 66.8865 47.2471 67.0002 47.4193 67.0782C47.5916 67.1563 47.7797 67.197 47.9701 67.1972H54.7527C55.0526 67.1971 55.3432 67.097 55.5747 66.9139C55.8062 66.7309 55.9641 66.4763 56.0215 66.1937L59.3118 49.9415H63.6673C65.6841 49.9415 66.1083 50.3548 66.1241 50.3736C66.2469 50.4985 66.4079 51.0833 66.1418 52.3947L63.4441 65.7206C63.4079 65.9001 63.4135 66.0852 63.4605 66.2624C63.5075 66.4396 63.5947 66.6047 63.716 66.7458C63.8372 66.8869 63.9895 67.0005 64.1618 67.0785C64.3342 67.1566 64.5224 67.1971 64.7129 67.1972H71.6043C71.9041 67.1969 72.1944 67.0967 72.4257 66.9136C72.657 66.7306 72.8149 66.4761 72.8722 66.1937L75.7104 52.1778C76.3756 48.8872 75.8063 46.4196 74.0174 44.8422C72.3094 43.337 69.4498 42.6059 65.2748 42.6059H60.8003L62.1222 36.0755C62.1585 35.8959 62.153 35.7108 62.1061 35.5334C62.0591 35.3561 61.9719 35.1909 61.8507 35.0497C61.7294 34.9085 61.5771 34.7948 61.4047 34.7167C61.2322 34.6386 61.0439 34.5981 60.8533 34.598ZM60.8533 35.8389L59.2318 43.845H65.2748C69.0768 43.845 71.7001 44.4824 73.142 45.7554C74.5867 47.0285 75.0183 49.0898 74.4425 51.9421L71.6033 65.9572H64.7129L67.4116 52.6304C67.7186 51.1145 67.6051 50.0807 67.0721 49.529C66.539 48.9782 65.4041 48.7024 63.6692 48.7024H58.2467L54.7527 65.9563H47.9692L54.0698 35.8362H60.8533V35.8389Z" fill="white"/>
<path d="M85.8084 60.5847C88.4066 60.5847 90.3462 60.1249 91.5742 59.2188C92.7872 58.3207 93.6263 56.7665 94.0663 54.5989C94.4756 52.5724 94.3203 51.1583 93.6012 50.3941C92.8682 49.6139 91.2821 49.2184 88.8876 49.2184H84.7358L82.4334 60.5847H85.8084ZM72.2304 74.5855C72.1349 74.5856 72.0407 74.5655 71.9543 74.5264C71.868 74.4874 71.7917 74.4305 71.7311 74.3598C71.6704 74.2891 71.6268 74.2064 71.6034 74.1176C71.5801 74.0288 71.5775 73.9362 71.5959 73.8463L77.6956 43.7271C77.7245 43.586 77.8036 43.459 77.9193 43.3676C78.035 43.2763 78.1802 43.2263 78.3301 43.2263H91.4774C95.6096 43.2263 98.6851 44.303 100.618 46.4268C102.561 48.5604 103.161 51.5457 102.401 55.2961C102.111 56.7734 101.577 58.197 100.821 59.5134C100.051 60.8208 99.0685 62.0021 97.9111 63.0129C96.4878 64.2913 94.8738 65.2198 93.123 65.7652C91.4002 66.3045 89.1862 66.5776 86.5452 66.5776H81.2213L79.7022 74.0838C79.6735 74.2252 79.5944 74.3526 79.4784 74.4441C79.3625 74.5357 79.217 74.5857 79.0668 74.5855H72.2304Z" fill="black"/>
<path d="M85.2679 49.8379H88.8876C91.7779 49.8379 92.7816 50.4467 93.1221 50.8101C93.6896 51.4118 93.7956 52.6822 93.4319 54.481C93.0226 56.4959 92.2653 57.9252 91.1797 58.7269C90.0681 59.5482 88.2596 59.9642 85.8093 59.9642H83.2176L85.2679 49.8379ZM91.4765 42.6067H78.3291C78.0295 42.607 77.7392 42.7071 77.5079 42.8899C77.2767 43.0728 77.1187 43.3271 77.0612 43.6093L70.9606 73.7293C70.9245 73.9088 70.9302 74.0937 70.9773 74.2708C71.0244 74.4479 71.1117 74.6129 71.2329 74.7539C71.3541 74.8949 71.5063 75.0084 71.6786 75.0864C71.8509 75.1644 72.039 75.2049 72.2294 75.205H79.0668C79.3666 75.2047 79.657 75.1045 79.8883 74.9215C80.1196 74.7384 80.2774 74.4839 80.3348 74.2016L81.7534 67.1972H86.5442C89.2522 67.1972 91.5341 66.9133 93.3221 66.3544C95.1622 65.7813 96.8543 64.8091 98.3529 63.4637C99.5585 62.4098 100.582 61.1785 101.384 59.816C102.158 58.4885 102.712 57.0066 103.035 55.4139C103.835 51.4654 103.186 48.3042 101.104 46.0188C99.0423 43.7539 95.804 42.6058 91.4755 42.6058L91.4765 42.6067ZM81.6502 61.2033H85.8084C88.5657 61.2033 90.6178 60.7061 91.9686 59.708C93.3175 58.7117 94.2272 57.0476 94.6998 54.7167C95.1529 52.4777 94.9473 50.8985 94.0812 49.9781C93.2161 49.0585 91.4848 48.5979 88.8876 48.5979H84.2037L81.6502 61.2033ZM91.4765 43.8441C95.431 43.8441 98.3176 44.8412 100.131 46.8329C101.945 48.8255 102.491 51.6064 101.767 55.1765C101.469 56.6477 100.965 57.9921 100.256 59.2098C99.5465 60.4293 98.619 61.5434 97.4729 62.5549C96.1082 63.7806 94.5919 64.6546 92.9221 65.1751C91.2541 65.6965 89.1285 65.9562 86.5442 65.9562H80.6883L79.065 73.9641H72.2276L78.3282 43.8441H91.4765Z" fill="white"/>
</g>
<defs>
<radialGradient id="paint0_radial_86_399" cx="0" cy="0" r="1" gradientUnits="userSpaceOnUse" gradientTransform="translate(35.8442 37.6458) scale(78.1802 75.0268)">
<stop stop-color="#AEB2D5"/>
<stop offset="0.3" stop-color="#AEB2D5"/>
<stop offset="0.75" stop-color="#484C89"/>
<stop offset="1" stop-color="#484C89"/>
</radialGradient>
<clipPath id="clip0_86_399">
<rect x="0.0981445" width="119.073" height="114.27" rx="10" fill="white"/>
</clipPath>
</defs>
</svg>
