<svg width="120" height="115" viewBox="0 0 120 115" fill="none" xmlns="http://www.w3.org/2000/svg">
<g clip-path="url(#clip0_86_420)">
<path d="M61.3485 67.223C67.2055 67.223 71.9535 62.6666 71.9535 57.0458C71.9535 51.4251 67.2055 46.8687 61.3485 46.8687C55.4916 46.8687 50.7436 51.4251 50.7436 57.0458C50.7436 62.6666 55.4916 67.223 61.3485 67.223Z" fill="black"/>
<path d="M101.629 40.2624C99.5822 39.5483 97.4426 38.8341 95.2099 38.2092C95.7681 36.0666 96.2332 33.924 96.6053 31.8707C98.5589 20.0866 96.4193 11.7841 90.4656 8.57029C88.6981 7.58827 86.7446 7.14191 84.512 7.14191C78.0002 7.14191 69.7209 11.7841 61.3485 19.5509C52.9762 11.7841 44.6969 7.14191 38.1851 7.14191C35.9525 7.14191 33.999 7.58827 32.2315 8.57029C26.2778 11.8734 24.1382 20.1759 26.0918 31.8707C26.4639 33.924 26.929 36.0666 27.4871 38.2092C25.2545 38.8341 23.1149 39.459 21.0684 40.2624C9.44014 44.5476 3.11438 50.4396 3.11438 57.0459C3.11438 63.6521 9.53316 69.5442 21.0684 73.8293C23.1149 74.5435 25.2545 75.2577 27.4871 75.8826C26.929 78.0252 26.4639 80.1678 26.0918 82.2211C24.1382 94.0052 26.2778 102.308 32.2315 105.522C33.999 106.504 35.9525 106.95 38.1851 106.95C44.7899 106.95 53.0692 102.308 61.3485 94.5408C69.7209 102.308 78.0002 106.95 84.512 106.95C86.7446 106.95 88.6981 106.504 90.4656 105.522C96.4193 102.218 98.5589 93.9159 96.6053 82.2211C96.2332 80.1678 95.7681 78.0252 95.2099 75.8826C97.4426 75.2577 99.5822 74.6328 101.629 73.8293C113.257 69.5442 119.583 63.6521 119.583 57.0459C119.583 50.4396 113.257 44.5476 101.629 40.2624ZM87.8609 13.034C91.675 15.1765 92.9773 21.7828 91.3959 31.1565C91.1168 33.0313 90.6517 34.9953 90.0935 37.0486C85.2562 35.9773 80.1398 35.2631 74.7443 34.8167C71.5814 30.5316 68.3255 26.6928 65.0696 23.2112C71.9535 16.6942 78.9304 12.2305 84.605 12.2305C85.8143 12.2305 86.9306 12.4983 87.8609 13.034ZM77.442 65.9733C75.7676 68.83 73.814 71.6868 71.7674 74.5435C68.3255 74.8114 64.8835 74.9006 61.3485 74.9006C57.7205 74.9006 54.2786 74.8114 50.9297 74.5435C48.8831 71.6868 47.0226 68.83 45.3481 65.9733C43.5806 63.0272 41.9061 59.9919 40.4177 57.0459C41.9061 54.0999 43.5806 51.0646 45.3481 48.1185C47.0226 45.2618 48.9761 42.405 51.0227 39.5483C54.4646 39.2804 57.9066 39.1912 61.4416 39.1912C65.0696 39.1912 68.5115 39.2804 71.8605 39.5483C73.907 42.405 75.7676 45.2618 77.442 48.1185C79.2095 51.0646 80.884 54.0999 82.3724 57.0459C80.7909 59.9919 79.2095 62.938 77.442 65.9733ZM85.1632 63.0272C86.5585 66.1518 87.6749 69.1871 88.6981 72.2224C85.5353 72.9366 82.1863 73.4723 78.6514 73.9186C79.7677 72.2224 80.977 70.4369 82.0003 68.5622C83.1166 66.6875 84.1399 64.8127 85.1632 63.0272ZM61.3485 87.2204C59.1159 84.8993 56.9763 82.3996 54.9298 79.8107C57.0694 79.9 59.209 79.9892 61.3485 79.9892C63.4881 79.9892 65.6277 79.9 67.7673 79.8107C65.7208 82.3996 63.5812 84.8993 61.3485 87.2204ZM44.0457 73.8293C40.5108 73.383 37.1618 72.8473 33.999 72.1331C35.0222 69.1871 36.1385 66.0625 37.5339 62.938C38.5572 64.7234 39.5805 66.5982 40.6968 68.3836C41.8131 70.3477 42.9294 72.0439 44.0457 73.8293ZM37.5339 51.0646C36.1385 47.94 35.0222 44.9047 33.999 41.8694C37.1618 41.1552 40.5108 40.6195 44.0457 40.1732C42.9294 41.8694 41.7201 43.6548 40.6968 45.5296C39.5805 47.4043 38.5572 49.2791 37.5339 51.0646ZM61.3485 26.8714C63.5812 29.1925 65.7208 31.6922 67.7673 34.2811C65.6277 34.1918 63.4881 34.1026 61.3485 34.1026C59.209 34.1026 57.0694 34.1918 54.9298 34.2811C56.9763 31.6922 59.1159 29.1925 61.3485 26.8714ZM82.0003 45.6189L78.6514 40.2624C82.1863 40.7088 85.5353 41.2445 88.6981 41.9586C87.6749 44.9047 86.5585 48.0293 85.1632 51.1538C84.1399 49.2791 83.1166 47.4043 82.0003 45.6189ZM31.3012 31.1565C29.7198 21.7828 31.0221 15.1765 34.8362 13.034C35.7664 12.4983 36.8828 12.2305 38.0921 12.2305C43.6736 12.2305 50.6506 16.6049 57.6275 23.2112C54.3716 26.6036 51.1157 30.5316 47.9528 34.8167C42.5573 35.2631 37.4409 36.0666 32.6036 37.0486C32.0454 34.9953 31.6733 33.0313 31.3012 31.1565ZM8.32383 57.0459C8.32383 52.85 13.6263 48.3863 22.9289 45.0832C24.7894 44.369 26.836 43.7441 28.8825 43.2085C30.3709 47.6722 32.2315 52.4037 34.4641 57.1352C32.2315 61.8667 30.2779 66.5089 28.8825 70.9726C16.045 67.4016 8.32383 62.0452 8.32383 57.0459ZM34.8362 101.058C31.0221 98.9153 29.7198 92.309 31.3012 82.9353C31.5803 81.0605 32.0454 79.0965 32.6036 77.0432C37.4409 78.1145 42.5573 78.8287 47.9528 79.275C51.1157 83.5602 54.3716 87.3989 57.6275 90.8806C50.7436 97.3976 43.7667 101.861 38.0921 101.861C36.8828 101.861 35.7664 101.593 34.8362 101.058ZM91.3959 82.9353C92.9773 92.309 91.675 98.9153 87.8609 101.058C86.9306 101.593 85.8143 101.861 84.605 101.861C79.0235 101.861 72.0465 97.4869 65.0696 90.8806C68.3255 87.4882 71.5814 83.5602 74.7443 79.275C80.1398 78.8287 85.2562 78.0252 90.0935 77.0432C90.6517 79.0965 91.0238 81.0605 91.3959 82.9353ZM99.7682 69.0086C97.9077 69.7228 95.8611 70.3477 93.8146 70.8833C92.3261 66.4196 90.4656 61.6881 88.233 56.9566C90.4656 52.2251 92.4192 47.5829 93.8146 43.1192C106.652 46.6902 114.373 52.0466 114.373 57.0459C114.373 61.2418 108.978 65.7054 99.7682 69.0086Z" fill="black"/>
</g>
<defs>
<clipPath id="clip0_86_420">
<rect x="0.323608" width="119.073" height="114.27" rx="10" fill="white"/>
</clipPath>
</defs>
</svg>
