<svg width="60" height="60" viewBox="0 0 60 60" fill="none" xmlns="http://www.w3.org/2000/svg">
<path d="M60 47.4546C60 48.2728 59.8583 49.0909 59.5748 50.4545C59.2887 51.5455 58.9916 52.6364 58.6782 53.1818C58.0813 54.8182 56.3479 56.1817 53.4808 57.8181C50.8099 59.1817 48.1663 60 45.5526 60H43.2959C42.5846 59.7273 41.7752 59.4543 40.8649 59.4543C39.9573 59.1816 39.276 58.9091 38.8208 58.6364C38.3956 58.6364 37.6134 58.3635 36.4769 57.8181C35.3405 57.2726 34.6455 57.2728 34.3893 57.0001C31.6039 56.1819 29.1183 54.8181 26.9325 53.4545C23.2952 51.2727 19.5311 48.2725 15.639 44.4543C11.7754 40.3634 8.7216 36.5454 6.47722 32.9999C5.1137 30.8181 3.93468 28.3637 2.94045 25.6364C2.85514 25.3637 2.5995 24.5454 2.17325 23.4545C1.74726 22.3636 1.44883 21.5453 1.27849 20.9999C1.13623 20.7271 0.937543 19.9091 0.681899 19.0909C0.426255 18.2727 0.241472 17.4545 0.127822 16.6363C0.0425166 15.8181 0 15.2725 0 14.4543C0 11.7271 0.724415 9.00007 2.17325 6.54552C3.76407 3.54552 5.26986 1.90916 6.69035 1.09098C7.40059 0.818248 8.36648 0.545388 9.58801 0.272661C10.8379 -6.65879e-05 11.8466 0 12.6135 0H13.5085C14.0198 0.272727 14.7726 1.3635 15.7671 3.27259C16.0794 3.81805 16.5057 4.63636 17.0453 5.45455C17.5852 6.54545 18.0823 7.36364 18.5369 8.18182C18.9912 9 19.4317 9.81825 19.8579 10.6364C19.9429 10.6364 20.1844 10.9089 20.5823 11.7271C21.0083 12.2725 21.3209 12.818 21.5199 13.0907C21.7186 13.6362 21.818 13.9089 21.818 14.4543C21.818 14.9998 21.4062 15.5454 20.5823 16.6363C19.7868 17.4545 18.9062 18.2728 17.9403 18.8182C17.0028 19.6364 16.1219 20.1817 15.2983 20.9999C14.5027 21.818 14.1051 22.6364 14.1051 23.1818C14.1051 23.4545 14.176 23.7271 14.318 23.9998C14.4602 24.5453 14.5739 24.8181 14.6589 24.8181C14.7726 25.0908 14.9715 25.3636 15.2555 25.9091C15.5681 26.4545 15.7385 26.7271 15.7671 26.7271C17.9261 30.5453 20.3975 34.0909 23.1816 36.8182C25.965 39.5455 29.3037 41.9999 33.1955 44.1817C33.2528 44.1817 33.5226 44.4546 34.005 44.7273C34.4874 45.0001 34.8281 45.2727 35.027 45.2727C35.226 45.2727 35.5121 45.5453 35.8801 45.5453C36.278 45.8181 36.605 45.818 36.8612 45.818C37.3709 45.818 38.025 45.5455 38.8208 44.7273C39.6166 43.9092 40.3688 43.091 41.0802 42.0001C41.7888 41.1819 42.571 40.091 43.424 39.2728C44.2744 38.4546 44.9857 38.1818 45.5526 38.1818C45.9505 38.1818 46.3484 38.1818 46.7463 38.4545C47.1742 38.7272 47.6839 39.0001 48.2807 39.2728C48.8776 39.8182 49.2319 40.0908 49.3464 40.0908C50.0577 40.6362 50.8099 40.909 51.6057 41.4544C52.4288 41.9999 53.3364 42.2726 54.3311 42.8181C55.3259 43.3635 56.0945 43.909 56.6341 44.1817C58.6209 45.2726 59.7002 46.0909 59.8719 46.3636C59.9564 46.6364 60 46.9092 60 47.4546Z" fill="black"/>
<path d="M0.596321 10.2273C0.200318 11.6116 0 13.0347 0 14.4033C0 15.1724 0.0850329 15.8798 0.170338 16.6195C0.283988 17.3307 0.42571 18.1795 0.681354 19.0909C0.936998 20.001 1.13541 20.6806 1.27767 21.1364C1.44801 21.5629 1.78814 22.3841 2.2144 23.5227C2.64065 24.66 2.89575 25.3118 2.98106 25.5682C3.97529 28.3582 5.10933 30.8755 6.47286 33.0682C8.71724 36.7118 11.8076 40.4182 15.6711 44.3182C19.563 48.1882 23.2772 51.2727 26.9135 53.5227C29.102 54.8891 31.623 56.1055 34.4084 57.1036C34.6645 57.1882 35.3159 57.4418 36.4524 57.87C37.5889 58.2955 38.412 58.5518 38.8372 58.7209C39.2923 58.8627 39.9709 59.0618 40.8812 59.3182C41.7915 59.5745 42.5546 59.8009 43.266 59.9155C44.0045 60 44.7976 60 45.5662 60C48.1799 60 50.8154 59.3209 53.4863 57.87C56.3561 56.2745 58.084 54.7745 58.6809 53.3509C58.9943 52.6418 59.2478 51.6791 59.534 50.4545C59.8174 49.2027 59.9591 48.1527 59.9591 47.3864C59.9591 46.9882 59.9591 46.6473 59.8746 46.4482C59.7738 46.1455 59.256 45.7309 58.5119 45.2564C57.8224 46.6036 56.1871 48.0164 53.4863 49.5164C50.8154 50.9673 48.1799 51.7336 45.5662 51.7336C44.7976 51.7336 44.0045 51.6491 43.266 51.5618C42.5546 51.4473 41.7915 51.3082 40.8812 51.0518C39.9709 50.7955 39.2923 50.5964 38.8372 50.4545C38.412 50.2827 37.5889 49.9445 36.4524 49.5164C35.3159 49.0909 34.6645 48.8345 34.4084 48.75C31.623 47.7545 29.102 46.6227 26.9135 45.2564C23.2772 43.0064 19.563 39.9218 15.6711 36.0518C11.8076 32.1518 8.71724 28.3582 6.47286 24.7145C5.10933 22.524 3.97529 20.0907 2.98106 17.3013C2.89575 17.0449 2.64065 16.3088 2.2144 15.1705C1.78814 14.0318 1.44801 13.296 1.27767 12.8695C1.13541 12.4135 0.936998 11.7338 0.681354 10.824C0.620304 10.6069 0.648921 10.4332 0.596321 10.2273Z" fill="black"/>
</svg>
